<?xml version="1.0" encoding="UTF-8"?><svg id="Layer_2" xmlns="http://www.w3.org/2000/svg" viewBox="0 0 638.21 348.75"><defs><style>.cls-1{fill:#e00218;}.cls-2{fill:#fff;}</style></defs><g id="Layer_1-2"><path d="M617.49,188.9c.15-.15.3-.3.45-.46.16-.15.31-.3.46-.46.15-.14.3-.29.44-.45,1.05-1,1.89-2.23,2.45-3.61l16.16-40.12c1.06-2.63.99-5.57-.19-8.15-1.18-2.57-3.37-4.55-6.05-5.46l-31.6-10.74c-3.42-1.16-7.04-.41-9.71,1.7v-7.43c8.86-7.07,15.63-17.33,20.14-30.52,4.8-14.04,5.43-27.18,1.89-39.03-4.22-14.28-14.05-24.42-28.43-29.33-13.86-4.73-27.44-2.39-39.24,6.72-.8.61-1.58,1.25-2.35,1.9l1.44-7.73c.44-2.35-.08-4.77-1.42-6.74s-3.43-3.32-5.77-3.76L508.88.15c-4.11-.77-8.2,1.39-9.88,5.21l-11.29,25.58c-.52,1.19-.77,2.46-.76,3.72-.2.09-.39.19-.59.29-.13-1.78-.67-3.52-1.61-5.08-1.64-2.7-4.32-4.61-7.41-5.28l-15.96-3.43c-2.96-.64-5.92-.07-8.34,1.4h-1.56c-.11-.01-.22-.01-.33-.01-3.43,0-6.65.41-9.65,1.21-1.18-2.24-2.69-4.24-4.54-5.95-2.17-2-4.72-3.48-7.59-4.42-2.67-.88-5.49-1.23-8.34-1.05-2.88.18-5.63.88-8.19,2.09-2.64,1.26-4.95,3-6.84,5.18-1.8,2.06-3.19,4.43-4.15,7.04-.45,1.23-.77,2.51-.99,3.81l-9.29.57c-2.46.15-4.7,1.07-6.49,2.51-1.99-1.23-4.34-1.85-6.74-1.7l-19.27,1.18c-2.98.18-5.67,1.5-7.62,3.56-8.34-7.08-18.55-10.46-29.73-9.77h0c-6.79.42-12.96,2.11-18.49,5.03-.2-.27-.41-.54-.64-.8-2.34-2.62-5.76-4.03-9.26-3.81l-17.23,1.05c-2.7.17-5.16,1.26-7.04,2.98l-17.7,1.08c-4.06.25-7.57,2.6-9.41,6.03l-15.46.95c-2.46.15-4.7,1.07-6.49,2.51-1.99-1.23-4.33-1.85-6.74-1.7l-19.27,1.18c-4.28.26-7.96,2.87-9.7,6.62l-.19-.51c-1.87-4.92-6.85-7.95-12.09-7.31l-30.06,3.62c-4.79.58-8.71,4.09-9.8,8.79l-4.18,17.98c-.85,3.64.13,7.46,2.62,10.25l-5.5,37.42c-2.36-2.46-4.89-4.73-7.59-6.81-14.83-11.55-32.52-15.55-52.57-11.9l-54.82,9.99c-4.77.87-8.28,4.94-8.45,9.78L0,167.57c-.1,2.95,1.06,5.78,3.18,7.81.15.16.3.32.46.47.15.17.31.33.48.49.15.16.3.32.46.47.15.16.3.32.47.47.15.16.3.32.47.47.15.16.3.32.46.47.15.17.31.33.47.48.15.16.31.32.47.47.15.17.31.33.47.48.15.16.3.32.46.47.15.16.3.32.46.47.15.17.31.33.47.48.15.16.31.32.47.47.15.17.31.33.47.48.15.16.3.32.46.47.15.16.3.32.46.47.15.17.31.33.47.48.15.16.3.32.47.47.15.16.3.32.47.47.15.16.3.32.47.47.15.16.3.32.46.47.15.16.3.32.47.47.06.06.12.12.17.18l16.78,92.07c.49,2.67,2.01,5.04,4.23,6.6.13.1.27.21.41.3.14.11.28.21.43.32.14.11.27.21.42.31.14.11.27.21.42.31.14.11.28.21.42.31.14.11.28.21.42.31.14.11.28.21.42.31.13.1.27.21.41.3.14.11.28.21.43.32.14.11.28.21.42.31.13.1.27.21.41.3.14.11.28.21.43.32.13.1.27.21.41.3.14.11.29.22.44.33.13.1.26.2.39.29.15.11.3.22.45.33.13.1.26.19.39.29.14.11.29.22.44.33.14.11.28.21.42.31.14.11.28.21.42.31.13.1.27.21.41.3.14.11.28.21.43.32.14.11.28.21.42.31.13.1.27.21.41.3.14.11.28.21.43.32.14.11.28.21.42.31.14.11.28.21.42.31.13.1.27.21.41.3.14.11.28.21.43.32.13.1.27.21.41.3.14.11.28.21.43.32.14.11.28.21.42.31.14.11.28.21.42.31.13.1.27.2.41.3.14.11.28.21.43.31.14.11.28.21.42.31.13.1.27.21.41.3.14.11.28.21.43.32.14.11.28.21.42.31.13.1.27.2.41.3.14.11.29.22.43.32.13.1.27.2.41.3.14.11.29.22.44.33.13.1.26.19.39.29.15.12.3.23.45.33.13.1.26.2.4.29.14.11.29.22.43.32.13.1.27.21.41.3.14.11.28.21.43.32.13.1.27.2.41.3.14.11.28.21.43.32.14.11.28.21.42.31.14.11.28.21.42.31.13.1.27.21.41.3.14.11.28.21.43.32.14.11.28.21.42.31.13.1.27.21.41.3.14.11.28.21.43.32.14.11.27.21.42.31.14.11.28.21.42.31.13.1.27.21.41.3.14.11.28.21.43.32.13.1.27.21.41.3.14.11.28.21.43.31.14.11.28.21.42.31.14.11.28.21.42.31.13.1.27.21.41.3.14.11.28.21.43.32.13.1.27.21.41.3.14.11.29.22.43.32.13.1.27.2.41.3.14.11.29.22.44.33.13.1.26.2.4.29.14.11.28.21.42.31.14.11.28.21.43.32.14.11.28.21.42.31.13.1.27.21.41.3.14.11.28.21.43.32.14.11.28.21.42.31.14.11.28.21.42.31.13.1.27.21.41.3.14.11.28.21.43.32.13.1.27.21.41.3.14.11.28.21.43.32.14.11.28.21.42.31.14.11.28.21.42.31.13.1.27.21.41.3.14.11.28.21.43.31.14.11.28.21.42.31.13.1.27.2.41.3.14.11.28.21.43.32.14.11.27.21.42.31.14.11.28.21.42.31.13.1.27.21.41.3.14.11.28.21.43.32.13.1.27.21.41.3.14.11.28.21.43.32.13.1.27.21.41.3.14.11.29.22.44.33.13.1.26.19.39.29.15.11.3.23.45.33.13.1.26.2.4.29.14.11.28.21.42.31.14.11.28.21.43.32.14.11.28.21.42.31.14.11.28.21.42.31.13.1.27.21.41.3.14.11.28.21.43.32.14.11.28.21.42.31.13.1.27.21.41.3.14.11.28.21.43.32.14.11.28.21.42.31.13.1.27.21.41.3.14.11.28.21.43.32.14.11.28.21.42.31.13.1.27.21.41.3.14.11.28.21.42.31.14.11.28.21.43.31.14.1.27.21.42.31.14.11.27.21.42.31.14.11.28.21.42.31.14.11.28.21.42.31.13.1.27.21.41.3.14.11.28.21.43.32.14.11.28.21.42.31.14.11.28.21.42.31.13.1.27.2.4.3.15.11.3.23.45.33.13.1.26.19.39.29.15.12.3.23.45.33.13.1.26.2.4.29.14.11.29.22.43.32.13.1.27.21.41.3.14.11.28.21.43.31.14.11.28.21.42.31.13.1.27.21.41.3.14.11.28.21.43.32.14.11.28.21.42.31.14.11.28.21.42.31.13.1.27.21.41.3.14.11.28.21.43.31.14.11.28.21.42.31.13.1.27.2.41.3.14.11.28.21.43.31.14.11.28.21.42.31.13.1.27.2.41.3.14.11.28.21.43.32.14.11.27.21.42.31.14.11.27.21.42.31.14.11.28.21.42.31.14.11.28.21.42.31.14.11.28.21.42.31.13.1.27.21.41.3.14.11.28.21.43.32.14.11.28.21.42.31.13.1.26.2.4.29.15.12.3.23.45.33.13.1.26.2.4.29.14.11.29.22.44.33.13.1.26.2.39.29.14.11.29.22.44.32.13.1.27.21.41.3.14.11.28.22.43.32.14.11.28.21.42.31.14.11.28.21.42.31.13.1.27.21.41.3.14.11.28.21.43.32.14.11.28.21.42.31.13.1.27.21.41.3.14.11.28.21.43.32.14.11.28.21.42.31.14.11.28.21.42.31.13.1.27.21.41.3.14.11.28.21.43.32.13.1.27.21.41.3.14.11.28.21.43.32.14.11.28.21.42.31.14.11.28.21.42.31.13.1.27.2.41.3.14.11.28.21.43.32.14.11.28.21.42.31.13.1.27.21.41.3.14.11.28.21.43.32.14.11.28.21.42.31.13.1.27.21.41.3.14.11.29.22.43.32.13.1.27.2.41.3.14.11.29.22.44.33.13.1.26.19.39.29.14.11.29.22.44.32.14.11.28.21.42.31.14.11.28.21.42.31.13.1.27.21.41.3.14.11.28.21.43.32.13.1.27.21.41.3.14.11.28.21.43.32.14.11.28.21.42.31.14.11.28.21.42.31.13.1.27.21.41.3.14.11.28.21.43.32,1.77,1.38,3.98,2.17,6.31,2.17.61,0,1.23-.05,1.86-.17l32.05-5.84c5.6-1.02,9.31-6.39,8.29-11.99l-2.47-13.54c5.66-1.06,10.78-3.09,15.32-6.05.02.03.05.06.07.09.08.12.17.24.26.35.09.13.18.26.28.38.08.12.17.23.25.34.09.13.19.27.29.39.08.12.17.24.26.35.09.13.18.26.28.38.09.12.17.24.26.36.09.12.17.25.27.37.09.13.18.26.28.38.08.12.17.24.26.36.09.12.18.25.27.37.09.13.18.26.28.38.08.12.17.24.26.36.09.12.18.25.27.37.09.13.18.26.28.38.08.12.17.23.25.34.09.13.19.26.29.39,1.86,2.66,4.95,4.4,8.44,4.4h19.53c1.3,0,2.55-.24,3.7-.68,1.21.5,2.53.77,3.92.77h19.62c3.76,0,7.05-2.01,8.85-5.02,1.86,3.12,5.22,5.02,8.85,5.02h15.77c2.68,0,5.13-1.03,6.96-2.71,6.23,2.49,12.52,3.75,18.81,3.75,7.92,0,14.86-1.94,20.71-5.8,1.85,2.74,4.99,4.54,8.54,4.54h19.44c1.24,0,2.43-.22,3.53-.63,1.12.41,2.31.63,3.53.63h20.08c4.47,0,8.41-2.88,9.79-7.09.04-.12.09-.24.13-.36.05-.12.09-.25.13-.38.05-.13.09-.25.13-.38.04-.12.08-.24.12-.35.05-.12.09-.25.13-.37.04-.1.07-.21.11-.31h1.27l.16.85c.92,4.87,5.17,8.4,10.13,8.4h38.42c1.5,0,2.93-.32,4.22-.9,1.3.58,2.73.9,4.22.9h5.97c.57,2.16,1.84,4.14,3.71,5.57,10.7,8.18,22.07,13.06,33.78,14.52,2.42.3,4.79.45,7.1.45,9.07,0,17.23-2.33,24.37-7,.67-.45,1.34-.92,2.1-1.5.18-.13.35-.27.53-.4l.07-.05c.14-.1.28-.22.46-.35.13-.1.27-.2.42-.32.14-.11.29-.22.48-.37.13-.1.27-.21.43-.34.12-.09.25-.19.41-.32.13-.1.27-.21.43-.34.14-.1.28-.22.46-.36.13-.1.26-.2.43-.33.13-.1.27-.21.44-.34.12-.09.25-.19.39-.31.14-.11.29-.22.47-.37.13-.1.26-.2.42-.33.13-.1.27-.21.43-.33.13-.1.27-.2.42-.32.14-.11.29-.22.48-.37.13-.1.26-.2.43-.34.13-.1.26-.2.41-.32.14-.1.28-.22.45-.35.13-.1.27-.21.44-.34.13-.1.27-.2.43-.33.13-.1.26-.2.41-.32.14-.1.27-.21.43-.33.14-.11.28-.22.46-.36.13-.1.26-.2.41-.32.14-.1.28-.21.45-.35.14-.1.28-.21.46-.35.13-.1.26-.2.42-.32.14-.1.28-.22.46-.36.13-.1.26-.2.42-.32.13-.1.26-.2.43-.33.14-.1.28-.21.45-.35.13-.1.26-.2.43-.33.13-.1.26-.2.42-.32.14-.1.28-.21.46-.36.12-.09.25-.19.41-.31.14-.11.29-.22.48-.37.13-.1.26-.2.42-.32.13-.1.26-.2.41-.32.14-.11.29-.22.44-.34.13-.1.27-.21.43-.33.14-.11.28-.22.46-.36.13-.1.27-.21.43-.33.13-.1.27-.21.43-.34.13-.1.27-.21.44-.34.13-.1.26-.2.41-.32.14-.11.29-.22.46-.36.13-.1.26-.2.43-.33.13-.1.26-.2.42-.32.14-.11.28-.22.45-.35.13-.1.27-.21.43-.34.13-.1.26-.2.42-.33.14-.1.28-.21.45-.35.13-.1.27-.21.44-.34.13-.1.26-.2.41-.32.14-.1.28-.21.46-.35.13-.1.27-.21.43-.33.13-.1.27-.21.42-.33.13-.1.27-.21.43-.33.14-.1.28-.22.46-.35.14-.1.28-.21.44-.34.13-.1.27-.21.43-.33.14-.1.28-.21.45-.35.12-.09.25-.2.41-.32.14-.11.28-.22.45-.35.13-.1.26-.2.41-.32.14-.1.28-.21.46-.36.13-.1.26-.2.42-.33.13-.1.27-.21.44-.34.13-.1.27-.21.43-.33.13-.1.26-.2.41-.32.14-.1.28-.21.44-.34.14-.1.28-.21.46-.35.13-.1.27-.21.44-.34.13-.1.27-.21.43-.33.13-.1.26-.2.41-.32.13-.1.27-.21.46-.35.13-.1.26-.2.43-.33.13-.1.27-.21.43-.34.14-.1.28-.21.45-.35.12-.09.25-.19.4-.31.14-.11.29-.22.45-.35.13-.1.27-.21.42-.33.13-.1.27-.21.43-.33.14-.1.28-.21.44-.34.14-.1.28-.21.45-.35.13-.1.27-.21.43-.34.14-.1.28-.21.45-.35.12-.09.25-.19.4-.31.14-.1.28-.21.44-.34.14-.1.27-.21.43-.33.14-.1.28-.22.46-.35.13-.1.26-.2.42-.32.14-.1.28-.21.43-.34.14-.11.29-.22.45-.35.13-.1.27-.2.42-.32.14-.11.28-.22.46-.36.13-.1.26-.2.41-.32.13-.1.27-.21.44-.34.13-.1.27-.21.43-.33.14-.11.28-.22.43-.34.14-.1.28-.21.44-.34.13-.1.27-.21.43-.33.14-.1.28-.21.44-.34.14-.1.27-.21.43-.34.14-.1.28-.21.43-.34.14-.1.28-.21.44-.34.14-.11.29-.22.46-.36.13-.1.26-.2.41-.32.14-.1.28-.22.46-.36.12-.09.25-.19.4-.31.13-.1.27-.21.44-.34.14-.11.29-.22.46-.36.12-.09.25-.19.41-.32.14-.11.29-.23.48-.37.12-.09.25-.19.39-.3.14-.1.28-.21.44-.34.14-.1.27-.21.43-.34.13-.1.26-.2.42-.33.14-.11.28-.22.44-.34.14-.11.28-.22.43-.34.14-.11.28-.22.46-.35.13-.1.25-.2.41-.32.14-.1.28-.21.43-.34.14-.11.29-.22.46-.35.13-.1.26-.2.41-.32.14-.1.28-.21.44-.34.14-.1.27-.21.44-.34.13-.1.27-.21.43-.33.14-.1.27-.21.43-.34.14-.1.28-.22.45-.35.14-.1.27-.21.43-.34.13-.1.27-.21.42-.33.13-.1.27-.21.43-.33.14-.1.27-.21.44-.34.14-.1.28-.21.44-.34.13-.1.27-.2.43-.33.14-.1.28-.21.44-.34.13-.1.27-.21.43-.33.14-.1.28-.21.44-.34.14-.1.27-.21.43-.34.13-.1.27-.21.43-.33.14-.11.28-.22.44-.34.14-.1.28-.21.44-.34.13-.1.27-.2.43-.33.14-.11.28-.22.43-.34.13-.1.27-.21.43-.34.14-.11.28-.22.44-.34.14-.1.28-.21.43-.34.14-.1.28-.21.44-.34.13-.1.27-.21.44-.34.13-.1.27-.21.43-.34.14-.1.27-.21.43-.34.14-.1.28-.21.44-.34.13-.1.27-.2.43-.33.14-.11.29-.22.45-.35.13-.1.26-.2.41-.32.14-.11.29-.22.47-.37.12-.09.25-.19.41-.32.13-.1.27-.21.43-.33.14-.11.29-.22.44-.34.12-.09.26-.2.42-.33.14-.11.28-.22.45-.35.13-.1.27-.21.43-.33.14-.1.27-.21.44-.34.14-.1.27-.21.43-.34.13-.1.27-.21.43-.34.14-.11.28-.22.44-.34.14-.1.28-.21.43-.34.13-.1.27-.21.44-.34.15-.11.29-.22.43-.34.14-.1.27-.21.44-.34.14-.1.27-.21.43-.33.14-.1.28-.21.43-.34.14-.1.28-.21.44-.34.14-.1.28-.21.44-.34.14-.1.28-.21.44-.34.13-.1.27-.2.43-.33.14-.11.28-.22.43-.34.14-.1.28-.21.44-.34.13-.1.26-.2.41-.32.15-.11.3-.23.46-.35.14-.1.28-.21.45-.35.13-.1.27-.2.42-.32.14-.1.28-.21.44-.34.13-.1.27-.21.44-.34.13-.1.26-.2.43-.33.14-.1.27-.21.43-.34.15-.11.29-.22.44-.34.13-.1.27-.21.43-.34.14-.11.29-.22.46-.35.13-.1.26-.2.41-.32.14-.1.28-.21.44-.34.14-.1.27-.21.43-.33.14-.1.28-.21.43-.34.14-.1.28-.21.44-.34.14-.1.28-.21.44-.34.13-.1.27-.21.44-.34.13-.1.27-.21.41-.32.81-.6,1.61-1.23,2.45-1.93,10.54-8.69,16.84-20.76,18.72-35.88,1.92-15.42-2.08-28.56-11.95-39.1.11-.11.22-.22.32-.33.15-.15.3-.29.44-.45Z"/><path class="cls-1" d="M134.69,160.29c-3.43-17.89-11.26-31.55-23.5-40.96-12.47-9.71-27.27-13.01-44.39-9.89l-54.82,9.99-1.67,48.33,10.14-1.85,20.07,110.14,46.18-8.42-6.22-34.12,14.24-2.6c14.82-2.7,26.05-11.21,33.7-25.54,5.82-11.2,8.33-23.06,7.51-35.57h2.78v67.57h28.14v-95.89h-27.88l-4.3,18.8ZM88.23,179.34c-1.26,3.7-3.61,5.86-7.07,6.49l-8.85,1.61-5.22-28.62,10.14-1.85c3.02-.55,5.58.44,7.68,2.98,2.1,2.54,3.45,5.49,4.06,8.84.7,3.82.44,7.33-.75,10.55Z"/><polygon class="cls-1" points="226.2 174.42 206.51 141.62 177.83 141.62 171.62 167.41 177.83 167.41 177.83 237.51 206.11 237.51 206.11 194.75 231.61 237.51 254.34 237.51 254.34 141.62 226.2 141.62 226.2 174.42"/><path class="cls-1" d="M385.68,137.51h-25.63l-.79,3.79h-36.21l-.03.12-20.98-4.33-.93,3.08c-1.5-.19-2.75-.33-3.77-.42-1.01-.09-1.78-.14-2.31-.14h-4.23c-8.99,0-16.25,2.52-21.8,7.57-5.9,5.33-8.85,12.67-8.85,22.01s3.21,16.31,9.65,21.45c3.61,2.8,9.51,5.66,17.71,8.55,6.34,2.24,9.51,4.49,9.51,6.73,0,2.99-1.98,4.49-5.95,4.49-3.44,0-7.53-.98-12.29-2.94l-11.76-5.47-7.14,27.76c10.57,6.17,21.1,9.25,31.58,9.25s18.32-2.76,24.84-8.27c7.05-6.07,10.57-14.3,10.57-24.67,0-9.06-3.17-16.21-9.51-21.45-3.44-2.8-9.21-5.7-17.31-8.69-6.26-2.24-9.38-4.3-9.38-6.17,0-2.99,2.11-4.49,6.34-4.49,2.38,0,5.9.84,10.57,2.52,4.14,1.5,7.53,3.04,10.17,4.63l.74-2.8h14.98l.13,67.57h28.01v-67.15h16.65l7.4-32.53Z"/><path class="cls-1" d="M587,181.67c-8.15-4.12-12.06-7.46-11.75-10.01.51-4.08,3.65-5.76,9.41-5.04,3.24.4,7.9,2.15,13.99,5.24,5.39,2.74,9.75,5.42,13.09,8.04l16.16-40.12-31.6-10.74-1.79,4.05c-2.01-.51-3.7-.91-5.06-1.21-1.37-.3-2.41-.49-3.13-.58l-5.77-.72c-12.25-1.53-22.59.68-31.02,6.62-8.96,6.26-14.23,15.77-15.82,28.51-1.56,12.49,1.61,22.79,9.51,30.89,4.45,4.44,12.01,9.33,22.69,14.67,8.27,4.14,12.21,7.74,11.83,10.79-.51,4.08-3.46,5.78-8.87,5.11-4.68-.58-10.1-2.62-16.26-6.1l-15.11-9.46-7.24,18.36-12.07-23.77c9.87-6.82,14.8-16.92,14.8-30.28,0-10.19-3.08-18.51-9.25-24.95-6.08-6.45-13.92-9.67-23.52-9.67h-40.57l-6.21,28.18h6.21v56.84l-22.73-85.02h-44.92l-8.85,25.8h6.34l-17.71,70.1h28.94l3.7-13.32h25.63l2.51,13.32h55.36v-28.32l12.16,28.32h27.32l-4.37,11.07c13.37,10.21,27.2,16.21,41.49,17.99,13.69,1.71,25.45-.64,35.28-7.06,10.64-7.09,16.85-17.7,18.61-31.85,1.54-12.36-1.57-22.65-9.33-30.87-4.21-4.41-11.58-9.34-22.13-14.8ZM410.26,198.64l7-28.46,7.13,28.46h-14.14ZM494.69,185.04h-6.74v-15.84h6.74c6.43,0,9.65,2.71,9.65,8.13,0,5.14-3.22,7.71-9.65,7.71Z"/><polygon class="cls-2" points="506.25 8.22 494.95 33.81 501.13 34.96 489.71 96.2 517.11 101.31 533.52 13.31 506.25 8.22"/><path class="cls-2" d="M602.32,45.97c-3.42-11.59-10.99-19.38-22.72-23.38-11.07-3.78-21.36-1.99-30.87,5.36-8.35,6.37-14.5,15.33-18.45,26.89-4.12,12.06-4.75,23.09-1.9,33.1,3.34,11.28,10.83,18.91,22.47,22.89,11.72,4,22.19,2.65,31.4-4.07,8.04-6.01,14.14-15.09,18.29-27.22,4.2-12.3,4.79-23.49,1.78-33.55ZM574.04,70.47c-1.64,4.79-3.25,8.29-4.84,10.52-2.65,3.71-5.87,4.91-9.67,3.61-5.94-2.03-7.06-8.49-3.33-19.39,4.62-13.54,9.83-19.33,15.61-17.35,5.94,2.03,6.69,9.57,2.24,22.61Z"/><path class="cls-2" d="M177.28,115.65l-2.61-8.71-17.15,2.01-1.55,9.2-19.36,2.27,6.95-48.29-4.24.5,4.12-17.96,30.06-3.52,23.85,62.16-20.07,2.35ZM162.34,72.01l-2.7,19.59,9.46-1.11-6.76-18.49Z"/><path class="cls-2" d="M234.32,114.61l-18.54-27.71,1.4,28.75-19,1.16-2.29-47.14-4.17.25,3.33-17.6,19.27-1.18,14.3,21.25-1.07-22.06,18.91-1.16,3.13,64.48-15.27.94Z"/><path class="cls-2" d="M290.47,60.43l-11.19.68,2.19,45.16-18.82,1.15-2.3-45.44-11.1.68,3.16-19.29,24.33-1.49.41-2.58,17.23-1.05-3.91,22.18Z"/><path class="cls-2" d="M349.45,92.18c-5.92,7.61-13.68,11.71-23.27,12.3-9.71.59-17.88-2.09-24.53-8.05-6.52-5.9-10.03-14.04-10.54-24.41-.39-7.98,2.16-15.32,7.66-22.03,6.17-7.5,14.16-11.55,23.99-12.15,9.12-.56,16.91,2.34,23.4,8.69,6.48,6.35,9.96,14.36,10.43,24.04.38,7.73-2.01,14.94-7.14,21.62ZM332.28,61.46c-2.31-2.38-5.22-3.46-8.71-3.25-3.43.21-6.4,1.59-8.88,4.14-2.37,2.54-3.47,5.66-3.29,9.37.09,1.95.51,3.7,1.24,5.27.73,1.56,1.68,2.89,2.87,3.99,1.18,1.09,2.57,1.91,4.17,2.44,1.6.53,3.32.74,5.15.63,1.71-.11,3.28-.53,4.7-1.28,1.42-.75,2.63-1.72,3.64-2.92,1.01-1.2,1.77-2.6,2.29-4.21.51-1.61.73-3.32.64-5.14-.17-3.58-1.45-6.59-3.82-9.03Z"/><path class="cls-2" d="M399.39,106.33l-18.54-27.71,1.4,28.75-19,1.16-2.29-47.14-4.17.25,3.33-17.6,19.27-1.18,14.3,21.25-1.07-22.06,18.91-1.16,3.13,64.48-15.27.93Z"/><path class="cls-2" d="M429.05,44.22c-2.75,3.38-6,5.51-9.75,6.36l-1.02-.79c.35-1.35.65-2.61.88-3.79.24-1.18.39-2.28.46-3.29-1.86-.45-3.52-1.47-4.96-3.05-1.44-1.58-2.21-3.35-2.31-5.3-.07-1.51.12-2.91.6-4.2.47-1.29,1.14-2.43,2.01-3.43.87-1,1.92-1.79,3.14-2.37,1.22-.58,2.54-.91,3.96-1s2.78.08,4.08.51c1.3.43,2.43,1.08,3.39,1.97.96.89,1.74,1.94,2.34,3.17.59,1.23.93,2.59,1,4.1.2,4.09-1.08,7.79-3.83,11.11Z"/><path class="cls-2" d="M468.17,95.06c-4.45,3.7-10.05,5.54-16.8,5.51-7.05-.03-14.1-2.13-21.14-6.31l5.1-18.68,7.85,3.71c3.18,1.33,5.92,2,8.24,2.01,2.67,0,4.02-.99,4.05-3.01.02-1.51-2.08-3.03-6.33-4.56-5.48-1.97-9.42-3.91-11.82-5.8-4.27-3.48-6.35-8.3-6.25-14.48.1-6.3,2.17-11.23,6.2-14.81,3.79-3.39,8.7-5.07,14.75-5.05h2.84c.36.01.87.05,1.55.11.68.07,1.52.16,2.53.29l.66-2.08,15.95,3.37-5.75,20.48c-1.76-1.08-4.02-2.12-6.79-3.14-3.12-1.15-5.48-1.72-7.08-1.73-2.84-.01-4.28.99-4.31,3.01-.02,1.26,2.06,2.65,6.24,4.18,5.42,2.04,9.27,4,11.55,5.9,4.21,3.54,6.26,8.37,6.17,14.47-.11,6.99-2.57,12.52-7.38,16.6Z"/></g></svg>