<?xml version="1.0" encoding="UTF-8"?>
<svg xmlns="http://www.w3.org/2000/svg" xmlns:xlink="http://www.w3.org/1999/xlink" version="1.1" viewBox="0 0 1779.1 1688.8">
  <defs>
    <style>
      .cls-1, .cls-2, .cls-3, .cls-4, .cls-5, .cls-6, .cls-7, .cls-8 {
        stroke-miterlimit: 10;
      }

      .cls-1, .cls-2, .cls-3, .cls-4, .cls-5, .cls-6, .cls-8 {
        stroke: #000;
      }

      .cls-1, .cls-2, .cls-9, .cls-10, .cls-8 {
        font-family: Nougat-ExtraBlack, Nougat;
        font-weight: 800;
      }

      .cls-1, .cls-2, .cls-7, .cls-8 {
        fill: none;
      }

      .cls-1, .cls-2, .cls-8 {
        font-size: 62px;
        stroke-width: 3px;
      }

      .cls-11 {
        fill: url(#New_Gradient_Swatch_4-6);
      }

      .cls-12 {
        fill: url(#New_Gradient_Swatch_4-5);
      }

      .cls-13 {
        fill: url(#New_Gradient_Swatch_4-3);
      }

      .cls-14 {
        fill: url(#New_Gradient_Swatch_4-4);
      }

      .cls-15 {
        fill: url(#New_Gradient_Swatch_4-2);
      }

      .cls-16 {
        fill: url(#New_Gradient_Swatch_5-2);
      }

      .cls-17 {
        fill: url(#New_Gradient_Swatch_5-5);
      }

      .cls-18 {
        fill: url(#New_Gradient_Swatch_5-4);
      }

      .cls-19 {
        fill: url(#New_Gradient_Swatch_5-3);
      }

      .cls-20 {
        fill: url(#New_Gradient_Swatch_5-8);
      }

      .cls-21 {
        fill: url(#New_Gradient_Swatch_5-7);
      }

      .cls-22 {
        fill: url(#New_Gradient_Swatch_5-6);
      }

      .cls-23 {
        fill: url(#New_Gradient_Swatch_3-5);
      }

      .cls-24 {
        fill: url(#New_Gradient_Swatch_3-6);
      }

      .cls-25 {
        fill: url(#New_Gradient_Swatch_3-2);
      }

      .cls-26 {
        fill: url(#New_Gradient_Swatch_3-4);
      }

      .cls-27 {
        fill: url(#New_Gradient_Swatch_3-9);
      }

      .cls-28 {
        fill: url(#New_Gradient_Swatch_3-8);
      }

      .cls-29 {
        fill: url(#New_Gradient_Swatch_3-3);
      }

      .cls-30 {
        fill: url(#New_Gradient_Swatch_3-7);
      }

      .cls-31 {
        fill: url(#New_Gradient_Swatch_2-4);
      }

      .cls-32 {
        fill: url(#New_Gradient_Swatch_2-3);
      }

      .cls-33 {
        fill: url(#New_Gradient_Swatch_2-6);
      }

      .cls-34 {
        fill: url(#New_Gradient_Swatch_2-5);
      }

      .cls-35 {
        fill: url(#New_Gradient_Swatch_2-2);
      }

      .cls-36 {
        fill: #e00218;
      }

      .cls-37 {
        letter-spacing: 0em;
      }

      .cls-37, .cls-38 {
        font-family: PublicSans-Regular, 'Public Sans';
        font-size: 51.8px;
      }

      .cls-38 {
        letter-spacing: 0em;
      }

      .cls-2 {
        letter-spacing: 0em;
      }

      .cls-39 {
        mix-blend-mode: multiply;
        opacity: .7;
      }

      .cls-3 {
        fill: url(#New_Gradient_Swatch_5);
      }

      .cls-3, .cls-4, .cls-5, .cls-6 {
        stroke-width: 3.5px;
      }

      .cls-4 {
        fill: url(#New_Gradient_Swatch_4);
      }

      .cls-5 {
        fill: url(#New_Gradient_Swatch_2);
      }

      .cls-6 {
        fill: url(#New_Gradient_Swatch_3);
      }

      .cls-40 {
        isolation: isolate;
      }

      .cls-9, .cls-41, .cls-42 {
        fill: #fff;
      }

      .cls-9, .cls-10 {
        font-size: 42px;
        letter-spacing: 0em;
      }

      .cls-41, .cls-43 {
        font-family: FontAwesome5FreeSolid, 'Font Awesome 5 Free';
        font-size: 60px;
        letter-spacing: 0em;
      }

      .cls-7 {
        stroke: #606060;
      }

      .cls-44 {
        fill: #c7fdfd;
      }

      .cls-45 {
        fill: #0255cf;
      }

      .cls-46 {
        fill: #2bf7fd;
      }

      .cls-47 {
        letter-spacing: -.2em;
      }

      .cls-8, .cls-48 {
        letter-spacing: 0em;
      }

      .cls-49 {
        fill: url(#New_Gradient_Swatch_3-11);
      }

      .cls-50 {
        fill: url(#New_Gradient_Swatch_3-10);
      }
    </style>
    <linearGradient id="New_Gradient_Swatch_5" data-name="New Gradient Swatch 5" x1="151.2" y1="1258.2" x2="230.4" y2="1394.5" gradientUnits="userSpaceOnUse">
      <stop offset=".5" stop-color="#fd3f7d"/>
      <stop offset=".6" stop-color="#f43220"/>
    </linearGradient>
    <linearGradient id="New_Gradient_Swatch_3" data-name="New Gradient Swatch 3" x1="671.5" y1="1258.2" x2="750.7" y2="1394.5" gradientUnits="userSpaceOnUse">
      <stop offset=".5" stop-color="#0c0"/>
      <stop offset=".6" stop-color="#13aa12"/>
    </linearGradient>
    <linearGradient id="New_Gradient_Swatch_2" data-name="New Gradient Swatch 2" x1="151.2" y1="1436.5" x2="230.4" y2="1572.8" gradientUnits="userSpaceOnUse">
      <stop offset=".5" stop-color="#2a95ed"/>
      <stop offset=".6" stop-color="#0171f9"/>
    </linearGradient>
    <linearGradient id="New_Gradient_Swatch_4" data-name="New Gradient Swatch 4" x1="671.5" y1="1436.5" x2="750.7" y2="1572.8" gradientUnits="userSpaceOnUse">
      <stop offset=".5" stop-color="#fec315"/>
      <stop offset=".6" stop-color="#f3a519"/>
    </linearGradient>
    <linearGradient id="New_Gradient_Swatch_5-2" data-name="New Gradient Swatch 5" x1="329.3" y1="1244.6" x2="459.6" y2="1469.1" xlink:href="#New_Gradient_Swatch_5"/>
    <linearGradient id="New_Gradient_Swatch_5-3" data-name="New Gradient Swatch 5" x1="329.3" y1="1244.6" x2="459.6" y2="1469.1" xlink:href="#New_Gradient_Swatch_5"/>
    <linearGradient id="New_Gradient_Swatch_5-4" data-name="New Gradient Swatch 5" x1="329.3" y1="1244.6" x2="459.6" y2="1469.1" xlink:href="#New_Gradient_Swatch_5"/>
    <linearGradient id="New_Gradient_Swatch_5-5" data-name="New Gradient Swatch 5" x1="329.3" y1="1244.6" x2="459.6" y2="1469.1" xlink:href="#New_Gradient_Swatch_5"/>
    <linearGradient id="New_Gradient_Swatch_5-6" data-name="New Gradient Swatch 5" x1="329.3" y1="1244.6" x2="459.6" y2="1469.1" xlink:href="#New_Gradient_Swatch_5"/>
    <linearGradient id="New_Gradient_Swatch_5-7" data-name="New Gradient Swatch 5" x1="329.3" y1="1244.6" x2="459.6" y2="1469.1" xlink:href="#New_Gradient_Swatch_5"/>
    <linearGradient id="New_Gradient_Swatch_5-8" data-name="New Gradient Swatch 5" x1="329.3" y1="1244.6" x2="459.6" y2="1469.1" xlink:href="#New_Gradient_Swatch_5"/>
    <linearGradient id="New_Gradient_Swatch_3-2" data-name="New Gradient Swatch 3" x1="872.7" y1="1220.8" x2="1029.7" y2="1491.2" xlink:href="#New_Gradient_Swatch_3"/>
    <linearGradient id="New_Gradient_Swatch_3-3" data-name="New Gradient Swatch 3" x1="872.7" y1="1220.8" x2="1029.7" y2="1491.2" xlink:href="#New_Gradient_Swatch_3"/>
    <linearGradient id="New_Gradient_Swatch_3-4" data-name="New Gradient Swatch 3" x1="872.7" y1="1220.8" x2="1029.7" y2="1491.2" xlink:href="#New_Gradient_Swatch_3"/>
    <linearGradient id="New_Gradient_Swatch_3-5" data-name="New Gradient Swatch 3" x1="872.7" y1="1220.8" x2="1029.7" y2="1491.2" xlink:href="#New_Gradient_Swatch_3"/>
    <linearGradient id="New_Gradient_Swatch_3-6" data-name="New Gradient Swatch 3" x1="872.7" y1="1220.8" x2="1029.7" y2="1491.2" xlink:href="#New_Gradient_Swatch_3"/>
    <linearGradient id="New_Gradient_Swatch_3-7" data-name="New Gradient Swatch 3" x1="872.7" y1="1220.8" x2="1029.7" y2="1491.2" xlink:href="#New_Gradient_Swatch_3"/>
    <linearGradient id="New_Gradient_Swatch_3-8" data-name="New Gradient Swatch 3" x1="872.7" y1="1220.8" x2="1029.7" y2="1491.2" xlink:href="#New_Gradient_Swatch_3"/>
    <linearGradient id="New_Gradient_Swatch_3-9" data-name="New Gradient Swatch 3" x1="872.7" y1="1220.8" x2="1029.7" y2="1491.2" xlink:href="#New_Gradient_Swatch_3"/>
    <linearGradient id="New_Gradient_Swatch_3-10" data-name="New Gradient Swatch 3" x1="872.7" y1="1220.8" x2="1029.7" y2="1491.2" xlink:href="#New_Gradient_Swatch_3"/>
    <linearGradient id="New_Gradient_Swatch_3-11" data-name="New Gradient Swatch 3" x1="872.7" y1="1220.8" x2="1029.7" y2="1491.2" xlink:href="#New_Gradient_Swatch_3"/>
    <linearGradient id="New_Gradient_Swatch_2-2" data-name="New Gradient Swatch 2" x1="298.5" y1="1448.2" x2="397.2" y2="1618.2" xlink:href="#New_Gradient_Swatch_2"/>
    <linearGradient id="New_Gradient_Swatch_2-3" data-name="New Gradient Swatch 2" x1="298.5" y1="1448.2" x2="397.2" y2="1618.2" xlink:href="#New_Gradient_Swatch_2"/>
    <linearGradient id="New_Gradient_Swatch_2-4" data-name="New Gradient Swatch 2" x1="298.5" y1="1448.2" x2="397.2" y2="1618.2" xlink:href="#New_Gradient_Swatch_2"/>
    <linearGradient id="New_Gradient_Swatch_2-5" data-name="New Gradient Swatch 2" x1="298.5" y1="1448.2" x2="397.2" y2="1618.2" xlink:href="#New_Gradient_Swatch_2"/>
    <linearGradient id="New_Gradient_Swatch_2-6" data-name="New Gradient Swatch 2" x1="298.5" y1="1448.2" x2="397.2" y2="1618.2" xlink:href="#New_Gradient_Swatch_2"/>
    <linearGradient id="New_Gradient_Swatch_4-2" data-name="New Gradient Swatch 4" x1="820.8" y1="1443.7" x2="923.7" y2="1620.9" xlink:href="#New_Gradient_Swatch_4"/>
    <linearGradient id="New_Gradient_Swatch_4-3" data-name="New Gradient Swatch 4" x1="820.8" y1="1443.7" x2="923.7" y2="1620.9" xlink:href="#New_Gradient_Swatch_4"/>
    <linearGradient id="New_Gradient_Swatch_4-4" data-name="New Gradient Swatch 4" x1="820.8" y1="1443.7" x2="923.7" y2="1620.9" xlink:href="#New_Gradient_Swatch_4"/>
    <linearGradient id="New_Gradient_Swatch_4-5" data-name="New Gradient Swatch 4" x1="820.8" y1="1443.7" x2="923.7" y2="1620.9" xlink:href="#New_Gradient_Swatch_4"/>
    <linearGradient id="New_Gradient_Swatch_4-6" data-name="New Gradient Swatch 4" x1="820.8" y1="1443.7" x2="923.7" y2="1620.9" xlink:href="#New_Gradient_Swatch_4"/>
  </defs>
  <!-- Generator: Adobe Illustrator 28.7.0, SVG Export Plug-In . SVG Version: 1.2.0 Build 136)  -->
  <g class="cls-40">
    <g id="Layer_1">
      <rect class="cls-39" x="124" y="1303.2" width="470.4" height="96.2" rx="9.8" ry="9.8"/>
      <path class="cls-3" d="M222,1379h-75.7c-2.2,0-4-1.8-4-4v-82.7c0-2.2,1.8-4,4-4h97.4c2.6,0,4.5,2.5,3.9,5l-21.7,82.7c-.5,1.8-2.1,3-3.9,3Z"/>
      <g>
        <path d="M189.3,1359.8c-2.4-2.6-5.6-6-9.4-10-4.7-5-7.8-8.4-9.3-10.1-2.2-2.5-3.7-4.7-4.6-6.5-.9-1.8-1.5-3.9-1.9-6.4-.6-4-.1-7.9,1.4-11.6,1.5-3.7,3.8-6.8,6.9-9.3,3.1-2.5,6.7-4,10.7-4.6,4-.6,7.9-.1,11.6,1.4,3.7,1.5,6.8,3.8,9.3,6.9,2.5,3.1,4,6.7,4.6,10.7.4,2.5.4,4.7,0,6.7-.3,2-1.2,4.5-2.6,7.5-1,2.1-3,6.2-6,12.4l-6.2,12.3c-.4.9-1.1,1.3-2.2,1.5-1,.1-1.8-.1-2.5-.8Z"/>
        <path class="cls-42" d="M184.3,1354.8c-2.4-2.6-5.6-6-9.4-10-4.7-5-7.8-8.4-9.3-10.1-2.2-2.5-3.7-4.7-4.6-6.5-.9-1.8-1.5-3.9-1.9-6.4-.6-4-.1-7.9,1.4-11.6,1.5-3.7,3.8-6.8,6.9-9.3,3.1-2.5,6.7-4,10.7-4.6,4-.6,7.9-.1,11.6,1.4,3.7,1.5,6.8,3.8,9.3,6.9,2.5,3.1,4,6.7,4.6,10.7.4,2.5.4,4.7,0,6.7-.3,2-1.2,4.5-2.6,7.5-1,2.1-3,6.2-6,12.4l-6.2,12.3c-.4.9-1.1,1.3-2.2,1.5-1,.1-1.8-.1-2.5-.8Z"/>
      </g>
      <rect class="cls-39" x="644.3" y="1303.2" width="470.4" height="96.2" rx="9.8" ry="9.8"/>
      <path class="cls-6" d="M742.3,1379h-75.7c-2.2,0-4-1.8-4-4v-82.7c0-2.2,1.8-4,4-4h97.4c2.6,0,4.5,2.5,3.9,5l-21.7,82.7c-.5,1.8-2.1,3-3.9,3Z"/>
      <g>
        <text class="cls-43" transform="translate(688.7 1356.4) rotate(-8.2)"><tspan x="0" y="0"></tspan></text>
        <text class="cls-41" transform="translate(683.8 1351.4) rotate(-8.2)"><tspan x="0" y="0"></tspan></text>
      </g>
      <rect class="cls-39" x="124" y="1481.5" width="470.4" height="96.2" rx="9.8" ry="9.8"/>
      <path class="cls-5" d="M222,1557.2h-75.7c-2.2,0-4-1.8-4-4v-82.7c0-2.2,1.8-4,4-4h97.4c2.6,0,4.5,2.5,3.9,5l-21.7,82.7c-.5,1.8-2.1,3-3.9,3Z"/>
      <g>
        <path d="M205.7,1481.1c4.8,2,8.8,4.9,12,9,3.2,4,5.2,8.6,6,13.8.7,5.2.1,10.2-1.8,14.9-2,4.8-4.9,8.8-9,12-4,3.2-8.6,5.2-13.8,6-5.2.7-10.2.1-14.9-1.8s-8.8-4.9-12-9c-3.2-4-5.2-8.6-6-13.8-.7-5.2-.1-10.2,1.8-14.9,2-4.8,4.9-8.8,9-12,4-3.2,8.6-5.2,13.8-6,5.2-.7,10.2-.1,14.9,1.8ZM204.3,1519c.4-.1.7-.4.8-.7l2.6-4.9c.2-.3.2-.7.1-1.1,0-.4-.3-.7-.7-.9l-8.2-4.3-2.3-16c0-.4-.2-.7-.5-.9-.3-.2-.7-.3-1-.3l-5.6.8c-.4,0-.7.2-.9.5-.2.3-.3.7-.3,1l2.8,19.5c0,.5.3.8.7,1.1l11.3,6c.3.2.7.2,1.1,0Z"/>
        <path class="cls-42" d="M200.7,1476.1c4.8,2,8.8,4.9,12,9,3.2,4,5.2,8.6,6,13.8.7,5.2.1,10.2-1.8,14.9-2,4.8-4.9,8.8-9,12-4,3.2-8.6,5.2-13.8,6-5.2.7-10.2.1-14.9-1.8s-8.8-4.9-12-9c-3.2-4-5.2-8.6-6-13.8-.7-5.2-.1-10.2,1.8-14.9,2-4.8,4.9-8.8,9-12,4-3.2,8.6-5.2,13.8-6,5.2-.7,10.2-.1,14.9,1.8ZM199.3,1514.1c.4-.1.7-.4.8-.7l2.6-4.9c.2-.3.2-.7.1-1.1,0-.4-.3-.7-.7-.9l-8.2-4.3-2.3-16c0-.4-.2-.7-.5-.9-.3-.2-.7-.3-1-.3l-5.6.8c-.4,0-.7.2-.9.5-.2.3-.3.7-.3,1l2.8,19.5c0,.5.3.8.7,1.1l11.3,6c.3.2.7.2,1.1,0Z"/>
      </g>
      <rect class="cls-39" x="644.3" y="1481.5" width="470.4" height="96.2" rx="9.8" ry="9.8"/>
      <path class="cls-4" d="M742.3,1557.2h-75.7c-2.2,0-4-1.8-4-4v-82.7c0-2.2,1.8-4,4-4h97.4c2.6,0,4.5,2.5,3.9,5l-21.7,82.7c-.5,1.8-2.1,3-3.9,3Z"/>
      <g>
        <text class="cls-43" transform="translate(688.7 1534.6) rotate(-8.2)"><tspan x="0" y="0"></tspan></text>
        <text class="cls-41" transform="translate(683.8 1529.7) rotate(-8.2)"><tspan x="0" y="0"></tspan></text>
      </g>
      <g>
        <g>
          <path class="cls-16" d="M289,1351.9h-13.3v2.4h15.6l-2.9,10.9h-12.7v2.6h15.3l-3.2,13.3h-25.4v-29.6h-2.9l2.9-12.8h17.6l.6-1.7h11.8l-3.4,14.9Z"/>
          <path class="cls-19" d="M316.9,1381.1l-6.2-12.2-6.6,12.2h-13.8l12.3-22-11.2-20.4h14.8l4.3,9.2,5.1-9.2h14.6l-11.2,20.4,12.5,22h-14.6Z"/>
          <path class="cls-18" d="M356.2,1381.1l-1.2-5.9h-12l-1.7,5.9h-13.6l8.3-31h-3l4.2-11.4h21.1l12,42.4h-14.1ZM349,1351.4l-3.3,12.6h6.6l-3.3-12.6Z"/>
          <path class="cls-17" d="M399.1,1381.1v-23.6l-7.6,9.1-8-8.4v22.9h-13.3v-29.5h-2.9l2.9-13h13.4l7.7,8.9,7.1-8.9h13v42.4h-12.3Z"/>
          <path class="cls-22" d="M443,1366.8c-2.9,3.4-6.4,5.1-10.7,5.1h-4.1v9.2h-13.3v-29.8h-2.9l2.9-12.6h15.7c4.9,0,8.9,1.6,11.8,4.7,3,3.1,4.5,7.1,4.5,12.1s-1.3,8-4,11.3ZM433.2,1352.8c-.5-.8-1.1-1.1-2-1.1h-2.9v7.8h2.5c1,0,1.8-.5,2.3-1.4.5-.8.7-1.7.7-2.7s-.2-1.7-.7-2.5Z"/>
          <path class="cls-21" d="M467.9,1381.1h-19.2v-29.7h-2.9l2.9-12.7h13.3v29.2h8.9l-3,13.2Z"/>
          <path class="cls-20" d="M498,1351.9h-13.3v2.4h15.6l-2.9,10.9h-12.7v2.6h15.3l-3.2,13.3h-25.4v-29.6h-2.9l2.9-12.8h17.6l.6-1.7h11.8l-3.4,14.9Z"/>
        </g>
        <text class="cls-2" transform="translate(259.9 1381.1)"><tspan x="0" y="0">EXAMPLE</tspan></text>
      </g>
      <g>
        <text class="cls-10" transform="translate(283.6 1499.8)"><tspan x="0" y="0">TIME L</tspan></text>
        <text class="cls-9" transform="translate(279.7 1496.6)"><tspan x="0" y="0">TIME L</tspan></text>
      </g>
      <g>
        <text class="cls-10" transform="translate(277.9 1320.1)"><tspan x="0" y="0">PIN</tspan></text>
        <text class="cls-9" transform="translate(274.1 1316.9)"><tspan x="0" y="0">PIN</tspan></text>
      </g>
      <g>
        <text class="cls-10" transform="translate(795.4 1320.1)"><tspan x="0" y="0">AUFGABE</tspan></text>
        <text class="cls-9" transform="translate(791.6 1316.9)"><tspan x="0" y="0">AUFGABE</tspan></text>
      </g>
      <g>
        <g>
          <path class="cls-25" d="M807.8,1381.1h-26.8l15.3-26c.3-.6.5-1.3.5-2.1,0-1.4-.6-2-1.8-2s-1.5.2-2,.7c-.6.5-.8,1.1-.8,1.9s.1,1,.4,1.4l-10.9,3.2c-1-1.9-1.5-3.9-1.5-6,0-4.3,1.5-7.7,4.5-10.4,2.9-2.6,6.5-4,10.7-4s7.6,1.3,10.4,3.8c2.8,2.5,4.2,5.8,4.2,9.9s-.6,4.5-1.7,6.4l-5.5,9.4h9.1l-3.8,13.6Z"/>
          <path class="cls-29" d="M833.4,1381.1h-13.9l9.1-29.7h-8.9l3.8-12.7h23l-13,42.4Z"/>
          <path class="cls-26" d="M863.1,1380.2c-1.4,1.4-3.1,2-5,2s-1.9-.2-2.8-.6c-.9-.4-1.6-.9-2.2-1.5s-1.1-1.4-1.5-2.2c-.4-.9-.6-1.8-.6-2.8s.2-1.9.6-2.8.9-1.6,1.5-2.3c.6-.6,1.4-1.1,2.2-1.5.9-.4,1.8-.6,2.8-.6,1.9,0,3.6.7,5,2.1,1.4,1.4,2.1,3.1,2.1,5s-.7,3.6-2.1,5Z"/>
          <path class="cls-23" d="M897.4,1375.1c-3.1,4.4-7.6,6.6-13.5,6.6s-10.4-2.3-13.6-6.8c-2.8-4.1-4.2-9.1-4.2-15.1s1.4-10.7,4.2-14.9c3.1-4.8,7.5-7.1,13-7.1s10.5,2.3,13.8,7c2.9,4.1,4.3,9.2,4.3,15.3s-1.3,11.1-4,15ZM883.7,1350.3c-2.9,0-4.3,3.4-4.3,10.2s1.5,8.2,4.5,8.2,3.2-1,3.8-3.1c.4-1.2.6-3.1.6-5.5,0-6.5-1.5-9.8-4.5-9.8Z"/>
          <path class="cls-24" d="M932.6,1377.2c-3.1,3-7.1,4.5-12,4.5s-9-1.3-12.2-3.9c-3.5-2.8-5.3-6.6-5.3-11.4s.7-5.5,2.1-8.1l11-19.6h15.4l-7.1,12.2c4.1.8,7.1,2.4,9.2,4.8,2.3,2.6,3.5,5.8,3.5,9.7s-1.5,8.8-4.6,11.8ZM922.7,1362.9c-.7-.7-1.6-1.1-2.5-1.1s-1.9.4-2.6,1.2c-.7.8-1,1.7-1,2.7s.3,1.8,1,2.4c.6.6,1.5.9,2.4.9s2-.3,2.7-1c.7-.7,1.1-1.5,1.1-2.6s-.4-1.8-1.1-2.5Z"/>
          <path class="cls-30" d="M951.2,1380.2c-1.4,1.4-3.1,2-5,2s-1.9-.2-2.8-.6-1.6-.9-2.2-1.5c-.6-.6-1.1-1.4-1.5-2.2-.4-.9-.6-1.8-.6-2.8s.2-1.9.6-2.8.9-1.6,1.5-2.3c.6-.6,1.4-1.1,2.2-1.5s1.8-.6,2.8-.6c1.9,0,3.6.7,5,2.1,1.4,1.4,2.1,3.1,2.1,5s-.7,3.6-2.1,5Z"/>
          <path class="cls-28" d="M983.9,1381.1h-26.8l15.3-26c.3-.6.5-1.3.5-2.1,0-1.4-.6-2-1.8-2s-1.5.2-2,.7-.8,1.1-.8,1.9.1,1,.4,1.4l-10.9,3.2c-1-1.9-1.5-3.9-1.5-6,0-4.3,1.5-7.7,4.5-10.4,2.9-2.6,6.5-4,10.7-4s7.6,1.3,10.4,3.8c2.8,2.5,4.2,5.8,4.2,9.9s-.6,4.5-1.7,6.4l-5.5,9.4h9.1l-3.8,13.6Z"/>
          <path class="cls-27" d="M1021.4,1375.1c-3.1,4.4-7.6,6.6-13.5,6.6s-10.4-2.3-13.6-6.8c-2.8-4.1-4.2-9.1-4.2-15.1s1.4-10.7,4.2-14.9c3.1-4.8,7.5-7.1,13-7.1s10.5,2.3,13.8,7c2.9,4.1,4.3,9.2,4.3,15.3s-1.3,11.1-4,15ZM1007.7,1350.3c-2.9,0-4.3,3.4-4.3,10.2s1.5,8.2,4.5,8.2,3.2-1,3.8-3.1c.4-1.2.6-3.1.6-5.5,0-6.5-1.5-9.8-4.5-9.8Z"/>
          <path class="cls-50" d="M1055.8,1381.1h-26.8l15.3-26c.3-.6.5-1.3.5-2.1,0-1.4-.6-2-1.8-2s-1.5.2-2,.7-.8,1.1-.8,1.9.1,1,.4,1.4l-10.9,3.2c-1-1.9-1.5-3.9-1.5-6,0-4.3,1.5-7.7,4.5-10.4,2.9-2.6,6.5-4,10.7-4s7.6,1.3,10.4,3.8c2.8,2.5,4.2,5.8,4.2,9.9s-.6,4.5-1.7,6.4l-5.5,9.4h9.1l-3.8,13.6Z"/>
          <path class="cls-49" d="M1092.5,1377.2c-3.1,3-7.1,4.5-12,4.5s-9-1.3-12.2-3.9c-3.5-2.8-5.3-6.6-5.3-11.4s.7-5.5,2.1-8.1l11-19.6h15.4l-7.1,12.2c4.1.8,7.1,2.4,9.2,4.8,2.3,2.6,3.5,5.8,3.5,9.7s-1.5,8.8-4.6,11.8ZM1082.7,1362.9c-.7-.7-1.6-1.1-2.5-1.1s-1.9.4-2.6,1.2c-.7.8-1,1.7-1,2.7s.3,1.8,1,2.4c.6.6,1.5.9,2.4.9s2-.3,2.7-1c.7-.7,1.1-1.5,1.1-2.6s-.4-1.8-1.1-2.5Z"/>
        </g>
        <text class="cls-8" transform="translate(777.4 1381.1)"><tspan x="0" y="0">27.06.2026</tspan></text>
      </g>
      <g>
        <text class="cls-10" transform="translate(795.4 1494.1)"><tspan x="0" y="0">ACTIVITY</tspan></text>
        <text class="cls-9" transform="translate(791.6 1490.9)"><tspan x="0" y="0">ACTIVITY</tspan></text>
      </g>
      <g>
        <g>
          <path class="cls-35" d="M271.3,1556.4v-29.5h-3l3-12.9h13.1v42.4h-13.2Z"/>
          <path class="cls-32" d="M294.8,1556.4v-29.5h-3l3-12.9h13.1v42.4h-13.2Z"/>
          <path class="cls-31" d="M332.5,1536.7c-1.4,1.4-3.1,2.1-5,2.1s-1.9-.2-2.8-.6c-.9-.4-1.6-.9-2.2-1.5s-1.1-1.4-1.5-2.3-.6-1.8-.6-2.8.2-1.9.6-2.8.9-1.6,1.5-2.3c.6-.6,1.4-1.1,2.2-1.5.9-.4,1.8-.6,2.8-.6,1.9,0,3.6.7,5,2.1,1.4,1.4,2.1,3.1,2.1,5s-.7,3.6-2.1,5ZM332.5,1555.6c-1.4,1.4-3.1,2-5,2s-1.9-.2-2.8-.6c-.9-.4-1.6-.9-2.2-1.5s-1.1-1.4-1.5-2.2c-.4-.9-.6-1.8-.6-2.8s.2-1.9.6-2.8.9-1.6,1.5-2.3c.6-.6,1.4-1.1,2.2-1.5.9-.4,1.8-.6,2.8-.6,1.9,0,3.6.7,5,2.1,1.4,1.4,2.1,3.1,2.1,5s-.7,3.6-2.1,5Z"/>
          <path class="cls-34" d="M366.7,1550.5c-3.1,4.4-7.6,6.6-13.5,6.6s-10.4-2.3-13.6-6.8c-2.8-4.1-4.2-9.1-4.2-15.1s1.4-10.7,4.2-14.9c3.1-4.8,7.5-7.1,13-7.1s10.5,2.3,13.8,7c2.9,4.1,4.3,9.2,4.3,15.3s-1.3,11.1-4,15ZM353,1525.7c-2.9,0-4.3,3.4-4.3,10.2s1.5,8.2,4.5,8.2,3.2-1,3.8-3.1c.4-1.2.6-3.1.6-5.5,0-6.5-1.5-9.8-4.5-9.8Z"/>
          <path class="cls-33" d="M402.7,1550.5c-3.1,4.4-7.6,6.6-13.5,6.6s-10.4-2.3-13.6-6.8c-2.8-4.1-4.2-9.1-4.2-15.1s1.4-10.7,4.2-14.9c3.1-4.8,7.5-7.1,13-7.1s10.5,2.3,13.8,7c2.9,4.1,4.3,9.2,4.3,15.3s-1.3,11.1-4,15ZM389,1525.7c-2.9,0-4.3,3.4-4.3,10.2s1.5,8.2,4.5,8.2,3.2-1,3.8-3.1c.4-1.2.6-3.1.6-5.5,0-6.5-1.5-9.8-4.5-9.8Z"/>
        </g>
        <text class="cls-1" transform="translate(259.1 1556.4)"><tspan class="cls-47" x="0" y="0">1</tspan><tspan class="cls-48" x="23.6" y="0">1:00</tspan></text>
      </g>
      <g>
        <g>
          <path class="cls-15" d="M789.5,1555.7v-29.5h-3l3-12.9h13.1v42.4h-13.2Z"/>
          <path class="cls-13" d="M847.3,1549h-2v6.6h-13.2v-6.6h-17.9v-14.5l12.6-21.3h16.6l-15.4,23.8h4.1v-5.3l13.2-2.6v7.6h5.1l-3.1,12.3Z"/>
          <path class="cls-14" d="M863.1,1536c-1.4,1.4-3.1,2.1-5,2.1s-1.9-.2-2.8-.6c-.9-.4-1.6-.9-2.2-1.5s-1.1-1.4-1.5-2.3-.6-1.8-.6-2.8.2-1.9.6-2.8.9-1.6,1.5-2.3c.6-.6,1.4-1.1,2.2-1.5.9-.4,1.8-.6,2.8-.6,1.9,0,3.6.7,5,2.1,1.4,1.4,2.1,3.1,2.1,5s-.7,3.6-2.1,5ZM863.1,1554.8c-1.4,1.4-3.1,2-5,2s-1.9-.2-2.8-.6c-.9-.4-1.6-.9-2.2-1.5s-1.1-1.4-1.5-2.2c-.4-.9-.6-1.8-.6-2.8s.2-1.9.6-2.8.9-1.6,1.5-2.3c.6-.6,1.4-1.1,2.2-1.5.9-.4,1.8-.6,2.8-.6,1.9,0,3.6.7,5,2.1,1.4,1.4,2.1,3.1,2.1,5s-.7,3.6-2.1,5Z"/>
          <path class="cls-12" d="M897.4,1549.7c-3.1,4.4-7.6,6.6-13.5,6.6s-10.4-2.3-13.6-6.8c-2.8-4.1-4.2-9.1-4.2-15.1s1.4-10.7,4.2-14.9c3.1-4.8,7.5-7.1,13-7.1s10.5,2.3,13.8,7c2.9,4.1,4.3,9.2,4.3,15.3s-1.3,11.1-4,15ZM883.7,1524.9c-2.9,0-4.3,3.4-4.3,10.2s1.5,8.2,4.5,8.2,3.2-1,3.8-3.1c.4-1.2.6-3.1.6-5.5,0-6.5-1.5-9.8-4.5-9.8Z"/>
          <path class="cls-11" d="M933.3,1549.7c-3.1,4.4-7.6,6.6-13.5,6.6s-10.4-2.3-13.6-6.8c-2.8-4.1-4.2-9.1-4.2-15.1s1.4-10.7,4.2-14.9c3.1-4.8,7.5-7.1,13-7.1s10.5,2.3,13.8,7c2.9,4.1,4.3,9.2,4.3,15.3s-1.3,11.1-4,15ZM919.6,1524.9c-2.9,0-4.3,3.4-4.3,10.2s1.5,8.2,4.5,8.2,3.2-1,3.8-3.1c.4-1.2.6-3.1.6-5.5,0-6.5-1.5-9.8-4.5-9.8Z"/>
        </g>
        <text class="cls-8" transform="translate(777.4 1555.7)"><tspan x="0" y="0">14:00</tspan></text>
      </g>
      <rect class="cls-45" x="119.4" y="239.8" width="223.9" height="223.9"/>
      <rect class="cls-46" x="395.5" y="240.3" width="223.9" height="223.9"/>
      <rect class="cls-44" x="679.1" y="240.3" width="223.9" height="223.9"/>
      <text class="cls-37" transform="translate(119.4 186.4) scale(.9 1)"><tspan x="0" y="0">CIRCULAR GRADIENT</tspan></text>
      <text class="cls-38" transform="translate(119.4 546.1) scale(.9 1)"><tspan x="0" y="0">0255CF</tspan></text>
      <text class="cls-37" transform="translate(395.5 546.1) scale(.9 1)"><tspan x="0" y="0">2BF7FD</tspan></text>
      <text class="cls-37" transform="translate(685.1 546.1) scale(.9 1)"><tspan x="0" y="0">C7FDFD</tspan></text>
      <rect class="cls-36" x="119.4" y="747.7" width="223.9" height="223.9"/>
      <rect class="cls-7" x="395.5" y="748.2" width="223.9" height="223.9"/>
      <rect x="679.1" y="748.2" width="223.9" height="223.9"/>
      <text class="cls-37" transform="translate(119.4 694.3) scale(.9 1)"><tspan x="0" y="0">CIRCULAR GRADIENT</tspan></text>
      <text class="cls-37" transform="translate(119.4 1054) scale(.9 1)"><tspan x="0" y="0">E00218</tspan></text>
      <text class="cls-37" transform="translate(395.5 1054) scale(.9 1)"><tspan x="0" y="0">FFFFFF</tspan></text>
      <text class="cls-38" transform="translate(685.1 1054) scale(.9 1)"><tspan x="0" y="0">00000</tspan></text>
    </g>
  </g>
</svg>